<?xml version="1.0" encoding="UTF-8" standalone="no"?>
<!-- Created with Inkscape (http://www.inkscape.org/) -->

<svg
   width="2048"
   height="430"
   viewBox="0 0 541.86611 113.77106"
   version="1.1"
   id="svg1"
   xml:space="preserve"
   sodipodi:docname="logo.svg"
   inkscape:export-filename="logo.png"
   inkscape:export-xdpi="687.44055"
   inkscape:export-ydpi="687.44055"
   inkscape:version="1.4.2 (ebf0e940d0, 2025-05-08)"
   xmlns:inkscape="http://www.inkscape.org/namespaces/inkscape"
   xmlns:sodipodi="http://sodipodi.sourceforge.net/DTD/sodipodi-0.dtd"
   xmlns:xlink="http://www.w3.org/1999/xlink"
   xmlns="http://www.w3.org/2000/svg"
   xmlns:svg="http://www.w3.org/2000/svg"><sodipodi:namedview
     id="namedview1"
     pagecolor="#505050"
     bordercolor="#eeeeee"
     borderopacity="1"
     inkscape:showpageshadow="0"
     inkscape:pageopacity="0"
     inkscape:pagecheckerboard="false"
     inkscape:deskcolor="#505050"
     inkscape:zoom="0.27611542"
     inkscape:cx="851.09336"
     inkscape:cy="564.98112"
     inkscape:window-width="1463"
     inkscape:window-height="833"
     inkscape:window-x="0"
     inkscape:window-y="0"
     inkscape:window-maximized="1"
     inkscape:current-layer="svg1" /><defs
     id="defs1"><linearGradient
       id="linearGradient11"><stop
         style="stop-color:#ffffff;stop-opacity:1;"
         offset="0"
         id="stop11" /><stop
         style="stop-color:#7e7e7e;stop-opacity:1;"
         offset="1"
         id="stop12" /></linearGradient><linearGradient
       id="linearGradient3"><stop
         style="stop-color:#eb6944;stop-opacity:1;"
         offset="0"
         id="stop3" /><stop
         style="stop-color:#f8af1d;stop-opacity:1;"
         offset="1"
         id="stop4" /></linearGradient><linearGradient
       xlink:href="#linearGradient3"
       id="linearGradient4"
       x1="4.6626601"
       y1="9.5700912"
       x2="4.6626601"
       y2="2.84026"
       gradientUnits="userSpaceOnUse"
       gradientTransform="matrix(1.6343968,-0.30990479,0.30990479,1.6343968,25.527109,-0.7024418)" /><linearGradient
       xlink:href="#linearGradient11"
       id="linearGradient13"
       gradientUnits="userSpaceOnUse"
       gradientTransform="matrix(0.73976381,0,0,0.44690044,10.890481,7.1738006)"
       x1="31.740213"
       y1="12.830999"
       x2="41.632244"
       y2="12.831003" /></defs><g
     id="layer1"
     style="display:inline"
     transform="matrix(7.160836,0,0,7.160836,7.3603592e-5,-2.9189733)"><rect
       style="display:none;fill:#ffffff;fill-opacity:1;stroke-width:0.0117973;stroke-linejoin:bevel;stroke-miterlimit:4;stroke-dasharray:0.0117973, 0.0117973;paint-order:markers stroke fill"
       id="rect10"
       width="75.67083"
       height="16.933332"
       x="-3.7166668e-05"
       y="0"
       ry="0.043848902" /><g
       id="g10"
       transform="translate(0.14283237,2.2094259)"
       style="stroke:#ffffff;stroke-width:0.5;stroke-linecap:round;stroke-linejoin:round;stroke-dasharray:none;stroke-opacity:1"><path
         d="M 1.6959667,10.90905 V 5.1798525 h 2.3116606 v 5.1726195 h 1.4245479 v 0.556578 z"
         id="text5"
         style="font-style:italic;font-stretch:semi-expanded;font-size:7.05556px;font-family:'Republica Minor 2.0';-inkscape-font-specification:'Republica Minor 2.0 Italic Semi-Expanded';letter-spacing:2.64583px;word-spacing:0px;stroke:#ffffff;stroke-width:0.5;stroke-linecap:round;stroke-linejoin:round;stroke-dasharray:none;stroke-opacity:1;paint-order:markers stroke fill"
         aria-label="L" /><path
         d="m 10.787575,9.7204913 q 0,0.3358967 0.325562,0.3358967 0.323839,0 0.323839,-0.3358967 V 7.6844385 q -0.0017,-0.1825901 -0.07924,-0.2583823 -0.07579,-0.077515 -0.244601,-0.077515 -0.325562,0 -0.325562,0.335897 z m -0.02928,-3.3314095 h 1.495173 q 0.430637,0 0.726916,0.053399 0.296278,0.051677 0.478868,0.1705323 0.184313,0.1188559 0.265273,0.3117814 0.08096,0.1912029 0.08096,0.4650882 l 0.0017,2.5114762 q -0.0017,0.2807751 -0.08268,0.4737011 -0.08096,0.191203 -0.26355,0.310059 -0.182591,0.118856 -0.480591,0.172255 -0.296279,0.05168 -0.726916,0.05168 H 9.9676416 q -0.4306373,0 -0.7269157,-0.05168 -0.2945558,-0.0534 -0.4754234,-0.16881 Q 8.5861574,10.573153 8.503475,10.38195 8.4225152,10.189025 8.4242378,9.9013589 l -0.00172,-4.7215064 h 2.3357762 z"
         id="text4"
         style="font-style:italic;font-stretch:semi-expanded;font-size:7.05556px;font-family:'Republica Minor 2.0';-inkscape-font-specification:'Republica Minor 2.0 Italic Semi-Expanded';letter-spacing:2.64583px;word-spacing:0px;fill:#174554;stroke:#ffffff;stroke-width:0.5;stroke-linecap:round;stroke-linejoin:round;stroke-dasharray:none;stroke-opacity:1;paint-order:markers stroke fill"
         aria-label="b" /><path
         id="text3-7"
         style="font-style:italic;font-stretch:semi-expanded;font-size:7.05556px;font-family:'Republica Minor 2.0';-inkscape-font-specification:'Republica Minor 2.0 Italic Semi-Expanded';letter-spacing:2.64583px;word-spacing:0px;display:inline;stroke:#ffffff;stroke-width:0.5;stroke-linecap:round;stroke-linejoin:round;stroke-dasharray:none;stroke-opacity:1;paint-order:markers stroke fill"
         d="m 18.340959,6.4011596 c -0.287091,0 -0.529568,0.01763 -0.727087,0.05323 -0.197519,0.03445 -0.356395,0.09221 -0.476974,0.1725998 -0.11943,0.07924 -0.205961,0.1847138 -0.259931,0.3167757 -0.05397,0.1309139 -0.08113,0.2928327 -0.08113,0.4857585 v 2.4649627 c 0,0.1929267 0.02716,0.3552477 0.08113,0.4873097 0.05397,0.130913 0.140502,0.236903 0.259931,0.317293 0.120579,0.07923 0.279455,0.136482 0.476974,0.172082 0.197519,0.03445 0.439996,0.05168 0.727087,0.05168 h 2.28565 c 0.28709,0 0.529569,-0.01723 0.727088,-0.05168 0.197519,-0.0356 0.357313,-0.09417 0.47904,-0.1757 0.122875,-0.08268 0.21113,-0.18816 0.2651,-0.316775 0.05397,-0.129766 0.08113,-0.291283 0.08113,-0.4842097 V 9.13329 H 19.80857 v 0.5787755 c 0,0.1217268 -0.02585,0.2095768 -0.07752,0.2635497 -0.05168,0.05397 -0.133956,0.08062 -0.246496,0.08062 -0.217041,0 -0.325562,-0.1144693 -0.325562,-0.344142 V 8.7886139 h 3.019971 V 7.4295212 c 0,-0.1883318 -0.02716,-0.3481266 -0.08113,-0.4790405 C 22.043862,6.8184178 21.955612,6.7116199 21.832737,6.630086 21.71101,6.547406 21.551215,6.4888371 21.353696,6.4543862 c -0.197519,-0.0356 -0.439997,-0.05323 -0.727087,-0.05323 z m 1.145415,0.9611781 c 0.234267,0 0.322195,0.1270669 0.322195,0.3808556 l 2.86e-4,0.2356468 c 0,0.2721328 -0.08395,0.3808546 -0.317025,0.3808546 -0.233077,0 -0.332552,-0.1270668 -0.332552,-0.3808556 l -2.86e-4,-0.2356458 c 0,-0.2660517 0.08099,-0.3808556 0.327382,-0.3808556 z" /><path
         id="text3-7-7"
         style="font-style:italic;font-stretch:semi-expanded;font-size:7.05556px;font-family:'Republica Minor 2.0';-inkscape-font-specification:'Republica Minor 2.0 Italic Semi-Expanded';letter-spacing:2.64583px;word-spacing:0px;display:inline;fill:#174554;fill-opacity:1;stroke:#ffffff;stroke-width:0.5;stroke-linecap:round;stroke-linejoin:round;stroke-dasharray:none;stroke-opacity:1;paint-order:markers stroke fill"
         d="m 25.42338,6.643291 c -0.248628,0.1435455 -0.449804,0.280052 -0.603061,0.409642 -0.153831,0.1285941 -0.262542,0.2580537 -0.326771,0.3879628 -0.06381,0.1283389 -0.08601,0.2629468 -0.06672,0.4043013 0.01872,0.1403598 0.07615,0.2941656 0.172618,0.4612442 l 1.232482,2.1347197 c 0.09646,0.16708 0.201145,0.294074 0.313915,0.381458 0.112196,0.08639 0.24013,0.134913 0.383754,0.144818 0.144039,0.0083 0.310256,-0.02153 0.499112,-0.08946 0.188282,-0.06892 0.406888,-0.175242 0.655516,-0.318788 l 1.979431,-1.1428248 c 0.248627,-0.143545 0.450005,-0.2797057 0.603837,-0.4082998 0.153256,-0.12959 0.262357,-0.2602101 0.32701,-0.3916807 0.06507,-0.1330405 0.08876,-0.2685163 0.0712,-0.4068852 -0.01814,-0.1393656 -0.07538,-0.2928234 -0.171844,-0.4599031 l -0.380598,-0.6592151 -2.052824,1.1851985 0.289388,0.5012343 c 0.06086,0.1054185 0.0824,0.1944236 0.06464,0.2670005 -0.01777,0.072579 -0.0757,0.136797 -0.173162,0.193067 C 28.05334,9.3454012 27.902098,9.3004836 27.787261,9.101581 L 27.325545,8.3018705 29.940916,6.791885 29.26137,5.6148762 C 29.167204,5.4517761 29.063785,5.3269698 28.951589,5.24058 28.838818,5.1531951 28.708992,5.1048309 28.561812,5.095658 28.415053,5.084919 28.247382,5.114094 28.0591,5.183018 c -0.188856,0.067929 -0.407663,0.1739 -0.65629,0.317445 z m 1.472548,0.2596971 c 0.202881,-0.1171335 0.342562,-0.051054 0.469457,0.1687331 l 0.118071,0.2039332 C 27.619522,7.5113283 27.60118,7.6474591 27.399326,7.7639966 27.197476,7.8805351 27.047794,7.8202296 26.9209,7.600442 L 26.802834,7.3965097 C 26.669809,7.1661022 26.682546,7.0261841 26.895928,6.9029881 Z" /><path
         d="m 45.720123,5.1451545 h 2.39262 l -0.0034,1.2195646 v 3.2108311 c 0,0.5075778 -0.109669,0.8647198 -0.329007,1.0714258 -0.105649,0.104501 -0.256659,0.181442 -0.45303,0.230821 -0.195222,0.04938 -0.43236,0.07407 -0.711413,0.07407 h -2.451187 c -0.261827,0 -0.483462,-0.02469 -0.664904,-0.07407 -0.181441,-0.04938 -0.329006,-0.129191 -0.442695,-0.239434 -0.11254,-0.111391 -0.194648,-0.253789 -0.246324,-0.427192 -0.05053,-0.174552 -0.07579,-0.3864254 -0.07579,-0.6356208 V 5.143432 l 1.429715,0.00172 h 0.957737 l 0.0017,4.0910535 c -0.0011,0.1458425 0.02126,0.250918 0.06718,0.3152265 0.04593,0.06316 0.121726,0.09474 0.227377,0.09474 0.105649,0 0.182016,-0.03158 0.229099,-0.09474 0.04823,-0.064309 0.07292,-0.1693842 0.07407,-0.3152265 z"
         id="text10"
         style="font-style:italic;font-stretch:semi-expanded;font-size:7.05556px;font-family:'Republica Minor 2.0';-inkscape-font-specification:'Republica Minor 2.0 Italic Semi-Expanded';letter-spacing:2.64583px;word-spacing:0px;stroke:#ffffff;stroke-width:0.5;stroke-linecap:round;stroke-linejoin:round;stroke-dasharray:none;stroke-opacity:1;paint-order:markers stroke fill"
         aria-label="U" /><path
         id="text9"
         style="font-style:italic;font-stretch:semi-expanded;font-size:7.05556px;font-family:'Republica Minor 2.0';-inkscape-font-specification:'Republica Minor 2.0 Italic Semi-Expanded';letter-spacing:2.64583px;word-spacing:0px;fill:#174554;stroke:#ffffff;stroke-width:0.5;stroke-linecap:round;stroke-linejoin:round;stroke-dasharray:none;stroke-opacity:1;paint-order:markers stroke fill"
         d="m 51.693797,5.1797872 -0.0016,1.2485026 h -1.149801 v 0.4547526 h 1.149801 l 5e-5,2.3318076 v 1.137398 c 0,0.384849 0.395411,0.556555 0.738456,0.556555 h 0.69143 0.406694 0.846977 0.803051 V 10.351732 H 54.31901 c -0.285709,-0.0014 -0.289388,-0.02292 -0.289388,-0.374138 V 9.21485 l -5e-5,-2.3318076 h 1.149283 V 6.4282898 H 54.029572 V 5.1797872 Z" /><path
         d="m 57.667712,10.908803 10e-7,-4.4805136 h 2.328886 l -1e-6,4.4805136 z m 0,-4.7525123 V 5.1847731 h 2.328886 v 0.9715176 z"
         id="text8"
         style="font-style:italic;font-stretch:semi-expanded;font-size:7.05556px;font-family:'Republica Minor 2.0';-inkscape-font-specification:'Republica Minor 2.0 Italic Semi-Expanded';letter-spacing:2.64583px;word-spacing:0px;stroke:#ffffff;stroke-width:0.5;stroke-linecap:round;stroke-linejoin:round;stroke-dasharray:none;stroke-opacity:1;paint-order:markers stroke fill"
         aria-label="i" /><path
         d="M 62.986937,10.908803 V 5.1796055 h 2.328886 v 5.7291975 z"
         id="text7"
         style="font-style:italic;font-stretch:semi-expanded;font-size:7.05556px;font-family:'Republica Minor 2.0';-inkscape-font-specification:'Republica Minor 2.0 Italic Semi-Expanded';letter-spacing:2.64583px;word-spacing:0px;fill:#174554;stroke:#ffffff;stroke-width:0.5;stroke-linecap:round;stroke-linejoin:round;stroke-dasharray:none;stroke-opacity:1;paint-order:markers stroke fill"
         aria-label="l" /><path
         d="m 73.689124,9.8942217 c -0.0011,0.1929253 -0.02869,0.3542713 -0.08268,0.4840363 -0.05397,0.128617 -0.142397,0.234266 -0.265272,0.316949 -0.121727,0.08153 -0.28135,0.140101 -0.478869,0.1757 -0.197519,0.03445 -0.439824,0.05168 -0.726916,0.05168 h -2.285822 c -0.287091,0 -0.529396,-0.01723 -0.726915,-0.05168 -0.197519,-0.0356 -0.356568,-0.09302 -0.477146,-0.172255 -0.119431,-0.08038 -0.206132,-0.186035 -0.260105,-0.316949 -0.05397,-0.132062 -0.08039,-0.294556 -0.07924,-0.4874813 l -0.0017,-0.5563833 h 2.363337 v 0.9029596 c 0,0.229673 0.108521,0.34451 0.325562,0.34451 0.112539,0 0.194647,-0.02699 0.246324,-0.08096 0.05283,-0.05397 0.07866,-0.141824 0.07751,-0.26355 V 9.5910531 c 0,-0.2021124 -0.180294,-0.3496774 -0.540881,-0.442695 L 69.418925,8.8159061 C 68.996326,8.7079597 68.712106,8.5885297 68.566263,8.457616 68.420421,8.3255539 68.348074,8.1234415 68.349222,7.8512788 L 68.3475,7.4292543 c 0,-0.1929255 0.02699,-0.3548451 0.08096,-0.4857588 0.05512,-0.1320621 0.143544,-0.2377117 0.265273,-0.316949 0.121727,-0.080386 0.281349,-0.1378039 0.478868,-0.1722549 0.197519,-0.035599 0.439825,-0.053399 0.726916,-0.053399 h 2.235868 c 0.287092,0 0.529397,0.0178 0.726916,0.053399 0.197519,0.034451 0.357142,0.093017 0.478869,0.1757 0.122875,0.081534 0.211299,0.188332 0.265272,0.3203941 0.05397,0.1309137 0.08096,0.2905366 0.08096,0.4788686 l 0.0017,0.3031686 H 71.346457 V 7.6187347 c -1.49e-4,-0.03027 -0.0047,-0.5941807 -0.0086,-0.6204617 -0.02556,-0.1731234 -0.12949,-0.2532152 -0.316943,-0.2532152 -0.09417,0 -0.171681,0.023542 -0.232544,0.070625 -0.06087,0.047083 -0.0913,0.1079467 -0.0913,0.1825902 0.0011,0.047083 0.0086,0.6187397 0.02239,0.6566353 0.01378,0.036748 0.04249,0.071773 0.08613,0.1050755 0.04479,0.033303 0.109095,0.065457 0.192925,0.096463 0.08498,0.029857 0.198093,0.060863 0.339342,0.093018 l 1.016304,0.2549372 c 0.5271,0.1355071 0.880223,0.2830721 1.059368,0.442695 0.183739,0.1550294 0.275608,0.3898702 0.275608,0.7045225 z"
         id="text6"
         style="font-style:italic;font-stretch:semi-expanded;font-size:7.05556px;font-family:'Republica Minor 2.0';-inkscape-font-specification:'Republica Minor 2.0 Italic Semi-Expanded';letter-spacing:2.64583px;word-spacing:0px;stroke:#ffffff;stroke-width:0.5;stroke-linecap:round;stroke-linejoin:round;stroke-dasharray:none;stroke-opacity:1;paint-order:markers stroke fill"
         aria-label="s" /></g><ellipse
       style="fill:#ffffff;fill-opacity:1;stroke:#ffffff;stroke-width:0.466845;stroke-linejoin:bevel;stroke-miterlimit:4;stroke-dasharray:none;stroke-dashoffset:0;stroke-opacity:1;paint-order:stroke fill markers"
       id="path11"
       cx="36.106003"
       cy="12.907982"
       rx="5.3422379"
       ry="0.52337158" /><path
       id="path11-5"
       style="display:inline;fill:url(#linearGradient13);stroke:#ffffff;stroke-width:0.390604;stroke-linejoin:bevel;paint-order:stroke fill markers"
       d="m 41.503571,12.907982 c 10e-7,0.276954 -1.747561,0.516413 -3.903172,0.501469 l -3.229657,-0.02706 V 12.90798 12.406509 h 3.229657 c 2.155663,0 3.903173,0.224515 3.903172,0.501469 z" /><path
       style="display:inline;opacity:1;fill:url(#linearGradient4);stroke:#ffffff;stroke-width:0.5;stroke-linecap:square;stroke-linejoin:miter;stroke-miterlimit:4;stroke-dasharray:none;stroke-opacity:1;paint-order:markers stroke fill"
       d="m 39.506894,8.5631151 0.236249,-0.4595282 0.830371,0.8242677 c 0.03671,0.032941 0.04482,0.031415 0.04901,-0.023991 L 40.613824,7.5790626 41.145097,7.689717 40.93352,9.2648883 41.578944,8.73722 c 0.273384,-0.2235056 0.664521,0.1102228 0.444802,0.4742207 -0.164041,0.2367733 -0.639242,0.6969362 -0.989154,0.8910193 -0.121398,0.06734 -0.462867,0.117153 -0.570612,0.108197 -0.25585,-0.0092 -0.56247,-0.120132 -0.56247,-0.120132 L 39.136995,9.8018521 38.324591,9.4655774 c -0.388475,-0.1607994 -0.645174,0.2181171 -0.683966,0.5181743 -0.01024,0.079151 -0.07852,0.3670573 0.02618,0.7849563 0.06038,0.240817 0.111464,0.479758 0.114268,0.742343 0.0046,0.441492 -0.04213,0.76955 -0.182844,1.155809 -0.06483,0.211786 -0.267891,0.54126 -0.267891,0.54126 -0.155163,0.112885 -0.34564,0.12434 -0.521473,0.111787 -0.205913,-0.02237 -0.27431,-0.105109 -0.278202,-0.276895 0.04127,-0.282838 0.171234,-0.468455 0.336786,-0.681299 0.112988,-0.144255 0.169641,-0.22841 0.113386,-0.358821 l -0.503247,-0.820543 c -0.13229,-0.326651 -0.168271,-0.52858 -0.168271,-0.52858 l -0.08422,-0.359381 c -0.437798,0.223664 -0.566684,0.319843 -0.816435,0.632717 l 0.07863,0.614574 c 0.01174,0.210934 -0.06273,0.505791 -0.06273,0.505791 -0.02226,0.120772 -0.203907,0.441844 -0.203907,0.441844 0,0 -0.0896,0.136689 -0.132125,0.344252 0.0057,0.212824 -0.06205,0.340001 -0.167735,0.466484 -0.25546,0.09056 -0.377259,0.11227 -0.630679,-0.07571 -0.2636,-0.183105 -0.130977,-0.458139 -0.130977,-0.458139 0.0711,-0.135635 0.300286,-0.203521 0.359456,-0.357955 0.04876,-0.141542 0.122883,-0.492623 0.108981,-0.599187 -0.0079,-0.20745 -0.06503,-0.531193 -0.06503,-0.531193 -0.09096,-0.169638 -0.219062,-0.616427 -0.244954,-0.758512 -0.09341,-0.348714 -0.147915,-0.6579336 -0.166808,-0.8797237 0,0 -0.240382,-0.2327926 -0.528572,-0.4009779 0,0 -0.350951,-0.1896353 -0.559838,-0.2004266 -0.339125,-0.00481 -0.59144,0.058497 -0.743495,0.2207657 -0.132587,0.1543222 -0.143531,0.1585951 -0.273335,0.4059464 -0.112839,0.2433591 -0.187392,0.5847241 -0.289473,1.0366611 -0.152069,0.133836 -0.165446,0.19028 -0.399059,0.289515 -0.386782,0.07542 -0.587041,0.04236 -0.746381,-0.188863 -0.02288,-0.137406 0.04728,-0.228759 0.0976,-0.284495 l 0.486273,-0.455645 c 0,0 0.09606,-0.2782579 0.167812,-0.7848341 C 31.36115,8.9196372 31.264863,8.1502436 31.159515,7.5554898 30.514441,7.5691841 30.000616,7.5083525 29.687819,7.3807811 29.614408,7.2372067 29.58373,7.1086309 29.58373,7.1086309 c -0.147001,0.011074 -0.218911,0.040315 -0.308184,0.085739 -0.327853,0.1564658 -0.501959,0.4763798 -0.675875,0.5647683 -0.548576,0.1218362 -0.461794,-0.4624588 -0.461794,-0.4624588 0.173736,-0.4521479 0.376469,-0.566429 0.737376,-0.7403983 0.244806,-0.1028518 0.4902,-0.1391386 0.4902,-0.1391386 C 29.282909,6.1462133 29.164837,5.6470698 29.104575,5.218568 L 28.454409,4.2260941 29.510866,4.3932583 29.700893,4.0443322 29.202065,3.4291567 c 1.127389,-0.3169337 1.543879,-0.073113 2.123816,0.2146642 0.937508,0.4652121 1.65379,1.3111144 2.044318,1.6171824 0.930208,0.729031 2.084226,1.2942223 2.63516,1.5110105 l 1.343997,0.6222567 c 0.322003,0.1490828 0.518986,0.616983 0.655813,0.8096252 0.02279,0.016324 1.573262,1.0919453 2.568345,1.189833 z"
       id="path3" /></g></svg>
