<?xml version="1.0" encoding="UTF-8" standalone="no"?>
<!-- Created with Inkscape (http://www.inkscape.org/) -->

<svg
   width="256"
   height="256"
   viewBox="0 0 67.733263 67.733312"
   version="1.1"
   id="svg1"
   xml:space="preserve"
   sodipodi:docname="small_logo.svg"
   inkscape:version="1.4.2 (ebf0e940d0, 2025-05-08)"
   inkscape:export-filename="small_logo.png"
   inkscape:export-xdpi="96"
   inkscape:export-ydpi="96"
   xmlns:inkscape="http://www.inkscape.org/namespaces/inkscape"
   xmlns:sodipodi="http://sodipodi.sourceforge.net/DTD/sodipodi-0.dtd"
   xmlns:xlink="http://www.w3.org/1999/xlink"
   xmlns="http://www.w3.org/2000/svg"
   xmlns:svg="http://www.w3.org/2000/svg"><sodipodi:namedview
     id="namedview1"
     pagecolor="#505050"
     bordercolor="#eeeeee"
     borderopacity="1"
     inkscape:showpageshadow="0"
     inkscape:pageopacity="0"
     inkscape:pagecheckerboard="0"
     inkscape:deskcolor="#505050"
     inkscape:zoom="1.3892146"
     inkscape:cx="89.259068"
     inkscape:cy="156.9232"
     inkscape:window-width="1463"
     inkscape:window-height="833"
     inkscape:window-x="0"
     inkscape:window-y="0"
     inkscape:window-maximized="1"
     inkscape:current-layer="svg1" /><defs
     id="defs1"><linearGradient
       id="linearGradient11"><stop
         style="stop-color:#ffffff;stop-opacity:1;"
         offset="0"
         id="stop11" /><stop
         style="stop-color:#7e7e7e;stop-opacity:1;"
         offset="1"
         id="stop12" /></linearGradient><linearGradient
       id="linearGradient3"><stop
         style="stop-color:#eb6944;stop-opacity:1;"
         offset="0"
         id="stop3" /><stop
         style="stop-color:#f8af1d;stop-opacity:1;"
         offset="1"
         id="stop4" /></linearGradient><linearGradient
       xlink:href="#linearGradient3"
       id="linearGradient4"
       x1="4.6626601"
       y1="9.5700912"
       x2="4.6626601"
       y2="2.84026"
       gradientUnits="userSpaceOnUse"
       gradientTransform="matrix(-4.6273711,-0.87741512,-0.87741512,4.6273711,-1.4397693,10.959217)" /><linearGradient
       xlink:href="#linearGradient11"
       id="linearGradient13"
       gradientUnits="userSpaceOnUse"
       gradientTransform="matrix(-2.0944495,0,0,1.2652828,62.672257,33.582605)"
       x1="31.740213"
       y1="12.830999"
       x2="41.632244"
       y2="12.831003" /></defs><g
     id="layer1"
     style="display:inline"
     transform="matrix(1.0547375,0,0,1.0547375,-1.7801945,-1.8537748)"><g
       id="g1"
       transform="matrix(1.8816378,0,0,1.8816378,-10.963793,-37.368016)"><g
         id="g10"
         transform="matrix(2.7641861,0,0,2.7641861,-2.4966161,15.730938)"
         style="stroke:#ffffff;stroke-width:0.5;stroke-linecap:round;stroke-linejoin:round;stroke-dasharray:none;stroke-opacity:1"><path
           d="M 4.1863093,10.909054 V 5.1798565 h 2.3116606 v 5.1726195 h 1.4245479 v 0.556578 z"
           id="text5"
           style="font-style:italic;font-stretch:semi-expanded;font-size:7.05556px;font-family:'Republica Minor 2.0';-inkscape-font-specification:'Republica Minor 2.0 Italic Semi-Expanded';letter-spacing:2.64583px;word-spacing:0px;stroke:#ffffff;stroke-width:0.5;stroke-linecap:round;stroke-linejoin:round;stroke-dasharray:none;stroke-opacity:1;paint-order:markers stroke fill"
           aria-label="L" /><path
           d="m 12.46598,5.1023412 h 2.39262 l -0.0034,1.2195646 v 3.2108311 c 0,0.5075781 -0.109669,0.8647201 -0.329007,1.0714261 -0.105649,0.104501 -0.256659,0.181442 -0.45303,0.230821 -0.195222,0.04938 -0.43236,0.07407 -0.711413,0.07407 h -2.451187 c -0.261827,0 -0.483462,-0.02469 -0.664904,-0.07407 -0.181441,-0.04938 -0.3290056,-0.129191 -0.4426946,-0.239434 -0.11254,-0.111391 -0.194648,-0.253789 -0.246324,-0.427192 -0.05053,-0.174552 -0.07579,-0.3864257 -0.07579,-0.6356211 V 5.1006187 l 1.4297146,0.00172 h 0.957737 l 0.0017,4.0910535 c -0.0011,0.1458425 0.02126,0.250918 0.06718,0.3152265 0.04593,0.06316 0.121726,0.09474 0.227377,0.09474 0.105649,0 0.182016,-0.03158 0.229099,-0.09474 0.04823,-0.064309 0.07292,-0.1693842 0.07407,-0.3152265 z"
           id="text10"
           style="font-style:italic;font-stretch:semi-expanded;font-size:7.05556px;font-family:'Republica Minor 2.0';-inkscape-font-specification:'Republica Minor 2.0 Italic Semi-Expanded';letter-spacing:2.64583px;word-spacing:0px;fill:#174554;fill-opacity:1;stroke:#ffffff;stroke-width:0.5;stroke-linecap:round;stroke-linejoin:round;stroke-dasharray:none;stroke-opacity:1;paint-order:markers stroke fill"
           aria-label="U" /></g></g><path
       style="display:inline;fill:url(#linearGradient4);stroke:#ffffff;stroke-width:1.41562;stroke-linecap:square;stroke-linejoin:miter;stroke-miterlimit:4;stroke-dasharray:none;stroke-opacity:1;paint-order:markers stroke fill"
       d="m 10.124601,35.757101 -0.6688803,-1.301035 -2.35098,2.3337 c -0.10393,0.09327 -0.12689,0.08895 -0.13875,-0.06793 l 0.0246,-3.75083 -1.50417,0.313289 0.59903,4.459689 -1.82735,-1.493956 c -0.77402,-0.632798 -1.88142,0.312068 -1.25934,1.342634 0.46444,0.670362 1.80984,1.973194 2.80053,2.522689 0.34371,0.190657 1.31049,0.331688 1.61554,0.306332 0.72437,-0.02605 1.59249,-0.340122 1.59249,-0.340122 l 2.1645203,-0.817299 2.30011,-0.952074 c 1.09987,-0.455262 1.826646,0.617541 1.936475,1.467076 0.029,0.224093 0.222309,1.039227 -0.07413,2.222401 -0.17095,0.681811 -0.315581,1.35831 -0.323521,2.101752 -0.01303,1.24997 0.11928,2.178781 0.517676,3.272373 0.183549,0.599618 0.758463,1.532438 0.758463,1.532438 0.439305,0.319604 0.978591,0.352036 1.476417,0.316495 0.582989,-0.06333 0.776637,-0.297588 0.787656,-0.783956 -0.116845,-0.800782 -0.484804,-1.326309 -0.953522,-1.928921 -0.319896,-0.408421 -0.480294,-0.646684 -0.321022,-1.015909 l 1.424819,-2.323154 c 0.374544,-0.924828 0.476416,-1.496537 0.476416,-1.496537 l 0.238446,-1.017495 c 1.239512,0.633247 1.604419,0.905553 2.311525,1.791375 l -0.22262,1.740007 c -0.03324,0.597205 0.177603,1.432017 0.177603,1.432017 0.06302,0.341934 0.57731,1.250966 0.57731,1.250966 0,0 0.253679,0.386999 0.374078,0.97466 -0.01615,0.602557 0.175678,0.962625 0.474898,1.320729 0.723269,0.256397 1.068111,0.317863 1.785604,-0.214354 0.746314,-0.518414 0.370828,-1.297101 0.370828,-1.297101 -0.201302,-0.384015 -0.850183,-0.576217 -1.017707,-1.013457 -0.138051,-0.40074 -0.347912,-1.394735 -0.308551,-1.696443 0.02237,-0.587341 0.184115,-1.503936 0.184115,-1.503936 0.257529,-0.480285 0.620217,-1.745253 0.693524,-2.147529 0.264466,-0.987295 0.418783,-1.862768 0.472273,-2.490711 0,0 0.68058,-0.659092 1.496516,-1.135265 0,0 0.993626,-0.536903 1.585035,-0.567456 0.960145,-0.01361 1.67451,0.16562 2.105014,0.625042 0.375386,0.436923 0.406371,0.44902 0.773878,1.149331 0.319474,0.689008 0.530551,1.655495 0.819567,2.935038 0.430544,0.378921 0.468417,0.538729 1.129832,0.819687 1.095073,0.213532 1.662054,0.119931 2.113184,-0.534717 0.06479,-0.389029 -0.13386,-0.647672 -0.276328,-0.805473 l -1.376716,-1.290043 c 0,0 -0.271969,-0.787814 -0.475117,-2.222054 0.0033,-1.012564 0.275913,-3.190903 0.574179,-4.874793 1.826359,0.03877 3.281121,-0.133458 4.166725,-0.494643 0.207845,-0.406494 0.294702,-0.770523 0.294702,-0.770523 0.416195,0.03135 0.619789,0.114141 0.872543,0.242749 0.92823,0.442992 1.421167,1.348745 1.913565,1.598994 1.553149,0.344948 1.307451,-1.309332 1.307451,-1.309332 -0.491889,-1.28014 -1.065876,-1.603697 -2.08769,-2.096247 -0.693105,-0.291197 -1.387875,-0.393934 -1.387875,-0.393934 0.233699,-0.767065 0.567989,-2.180262 0.738605,-3.393453 l 1.840777,-2.809932 -2.991085,0.473281 -0.538012,-0.987894 1.412303,-1.74171 c -3.19191,-0.897315 -4.371094,-0.207 -6.013035,0.607766 -2.654311,1.317128 -4.682278,3.712081 -5.787957,4.578633 -2.633642,2.064063 -5.900946,3.664256 -7.460773,4.278035 l -3.80518,1.761759 c -0.911667,0.422089 -1.469374,1.746827 -1.856761,2.292244 -0.0645,0.04622 -4.4542903,3.091561 -7.2716103,3.368704 z"
       id="path3" /></g></svg>
